<?xml version="1.0" encoding="UTF-8"?>
<svg id="Layer_1" xmlns="http://www.w3.org/2000/svg" version="1.1" viewBox="0 0 1101 817">
  <!-- Generator: Adobe Illustrator 30.4.0, SVG Export Plug-In . SVG Version: 2.1.4 Build 226)  -->
  <defs>
    <style>
      .st0, .st1, .st2, .st3, .st4, .st5 {
        isolation: isolate;
      }

      .st0, .st3 {
        font-size: 8px;
      }

      .st6 {
        fill: #666;
        stroke: #666;
      }

      .st7 {
        fill: #ffef9e;
      }

      .st8 {
        fill: #fca6a6;
      }

      .st8, .st9, .st10, .st11, .st12, .st13, .st14, .st15, .st16, .st17, .st18, .st19 {
        stroke: #000;
      }

      .st9, .st18 {
        fill: #fce4a6;
      }

      .st10 {
        fill: #fcb6e0;
      }

      .st20 {
        fill: #444;
      }

      .st20, .st21, .st22 {
        stroke: #444;
      }

      .st1 {
        font-size: 10px;
      }

      .st1, .st2, .st23, .st3, .st4, .st5 {
        font-family: Helvetica, Helvetica;
      }

      .st11 {
        fill: #fcd4a6;
      }

      .st24 {
        fill: #fad9ff;
      }

      .st25 {
        font-family: MyriadPro-Regular, 'Myriad Pro';
      }

      .st2 {
        font-size: 9px;
      }

      .st26 {
        fill: #f2ebe5;
        stroke: #f2ebe5;
      }

      .st27 {
        stroke: #fff;
      }

      .st27, .st28, .st17 {
        fill: #fff;
      }

      .st12 {
        fill: #e6e6e6;
      }

      .st29 {
        fill: #888;
        stroke: #888;
      }

      .st13 {
        fill: #a6fcc4;
      }

      .st21, .st22 {
        fill: none;
      }

      .st21, .st17 {
        stroke-dasharray: 5 2;
      }

      .st14 {
        fill: #ffd56b;
        stroke-width: 2.5px;
      }

      .st15 {
        fill: #d4a6fc;
      }

      .st16 {
        fill: #a6d8fc;
      }

      .st18 {
        stroke-width: 2px;
      }

      .st19 {
        fill: #fff8a6;
      }

      .st30 {
        fill: #e9eaeb;
        stroke: #e9eaeb;
      }

      .st31 {
        fill: #e1e1e1;
        stroke: #e1e1e1;
      }

      .st32 {
        display: none;
      }

      .st4 {
        font-size: 12.73px;
      }

      .st5 {
        font-size: 11px;
      }
    </style>
  </defs>
  <polygon class="st28" points="0 816.81 0 0 1101 0 1101 816.81 0 816.81"/>
  <g id="clust1">
    <path class="st31" d="M185,87.79h375c6,0,12-6,12-12V24c0-6-6-12-12-12H185c-6,0-12,6-12,12v51.79c0,6,6,12,12,12"/>
    <text class="st5" transform="translate(326.03 26.45)"><tspan x="0" y="0">Extracellular space</tspan></text>
  </g>
  <g id="clust3">
    <path class="st26" d="M177,184.79h498c6,0,12-6,12-12v-48c0-6-6-12-12-12H177c-6,0-12,6-12,12v48c0,6,6,12,12,12"/>
    <text class="st5" transform="translate(329.87 127.24)"><tspan x="0" y="0">Plasma membrane — receptors + entry</tspan></text>
  </g>
  <g id="clust5">
    <g id="Original_Art" class="st32">
      <path class="st29" d="M24,804.81h817c6,0,12-6,12-12V223.29c0-6-6-12-12-12H24c-6,0-12,6-12,12v569.52c0,6,6,12,12,12"/>
    </g>
    <path class="st24" d="M844.08,805.42l-633.64-.18-188.23.05c-5.31,0-8.25-5.32-10.75-9.31l.05-574.92c1.42-4.34,5.98-9.34,10.29-10.3l822.31-.07c4.4,2.44,7.1,4.92,9.42,9.53l-.06,574.98c-.51,4.64-4.97,6.94-9.39,10.22ZM435.09,723.84c-1.57-.22-4.13-.49-5.07,1.15-.89,1.55.09,9.48,2.04,10.4,1.86.89,4.24.38,4.96-1.32,1.29-3.02,1.22-9.78-1.93-10.23Z"/>
    <path class="st7" d="M435.09,723.84c3.15.44,3.22,7.21,1.93,10.23-.72,1.7-3.1,2.21-4.96,1.32-1.95-.93-2.92-8.85-2.04-10.4.93-1.63,3.5-1.37,5.07-1.15Z"/>
    <text class="st5" transform="translate(347.49 225.74)"><tspan x="0" y="0">Cytosol — 6 fL · ~100 nM free Ca²⁺</tspan></text>
  </g>
  <g id="clust6">
    <path class="st27" d="M32,796.81h332c6,0,12-6,12-12v-223.93c0-6-6-12-12-12H32c-6,0-12,6-12,12v223.93c0,6,6,12,12,12"/>
    <text class="st1" transform="translate(116.24 562.38)"><tspan x="0" y="0">DTS lumen — 0.26 fL · ~250 µM free</tspan></text>
  </g>
  <g id="clust9">
    <path class="st6" d="M573,621.07h260c6,0,12-6,12-12v-47.25c0-6-6-12-12-12h-260c-6,0-12,6-12,12v47.25c0,6,6,12,12,12"/>
    <text class="st1" transform="translate(674.37 563.32)"><tspan x="0" y="0">Mitochondria</tspan></text>
  </g>
  <g id="clust11">
    <path class="st30" d="M873,719.02h204c6,0,12-6.94,12-13.88v-55.54c0-6.94-6-13.88-12-13.88h-204c-6,0-12,6.94-12,13.88v55.54c0,6.94,6,13.88,12,13.88"/>
    <text class="st4" transform="translate(897.97 652.43) scale(.86 1)"><tspan x="0" y="0">Plasma membrane — extrusion</tspan></text>
  </g>
  <g id="node1">
    <ellipse class="st17" cx="471" cy="59.9" rx="93.36" ry="19.9"/>
    <text class="st2" transform="translate(436.08 58.7)"><tspan x="0" y="0">AGONIST INPUT</tspan></text>
    <text class="st2" transform="translate(414.21 68.45)"><tspan x="0" y="0">Thrombin 1 nM · ADP 10 µM</tspan></text>
  </g>
  <g id="node4">
    <path class="st10" d="M667.26,140.79h-40.52c-6,0-12,6-12,12v12c0,6,6,12,12,12h40.52c6,0,12-6,12-12v-12c0-6-6-12-12-12"/>
    <text class="st2" transform="translate(635.99 157.59)"><tspan x="0" y="0">P2Y1</tspan></text>
    <text class="st2" transform="translate(623.49 167.34)"><tspan x="0" y="0">(ADP) · 150</tspan></text>
  </g>
  <g id="edge3">
    <path class="st21" d="M526.04,76.35c25.03,8.5,54.28,20.58,77.96,36.44,9.19,6.16,17.91,14.59,25.06,22.49"/>
    <polygon class="st20" points="630.38 133.59 632.75 139.49 627.22 136.36 630.38 133.59"/>
    <text class="st3" transform="translate(590.9 103.39)"><tspan x="0" y="0">ADP</tspan></text>
  </g>
  <g id="node5">
    <path class="st10" d="M467.51,140.79h-75.02c-6,0-12,6-12,12v12c0,6,6,12,12,12h75.02c6,0,12-6,12-12v-12c0-6-6-12-12-12"/>
    <text class="st2" transform="translate(418.58 157.59)"><tspan x="0" y="0">PAR1</tspan></text>
    <text class="st2" transform="translate(389.73 167.34)"><tspan x="0" y="0">(thrombin hi) · 2 500</tspan></text>
  </g>
  <g id="edge4">
    <path class="st21" d="M462.9,80.04c-6.49,15.35-15.65,36.98-22.65,53.53"/>
    <polygon class="st20" points="442.26 134.22 437.98 138.92 438.39 132.58 442.26 134.22"/>
    <text class="st3" transform="translate(455.57 103.39)"><tspan x="0" y="0">thrombin</tspan></text>
  </g>
  <g id="node6">
    <path class="st10" d="M580.76,140.79h-67.52c-6,0-12,6-12,12v12c0,6,6,12,12,12h67.52c6,0,12-6,12-12v-12c0-6-6-12-12-12"/>
    <text class="st2" transform="translate(535.58 157.59)"><tspan x="0" y="0">PAR4</tspan></text>
    <text class="st2" transform="translate(510.48 167.34)"><tspan x="0" y="0">(thrombin lo) · 500</tspan></text>
  </g>
  <g id="edge5">
    <path class="st21" d="M485.65,79.58c12.4,15.81,30.22,38.53,43.46,55.41"/>
    <polygon class="st20" points="530.43 133.26 532.48 139.28 527.12 135.85 530.43 133.26"/>
    <text class="st3" transform="translate(504.64 103.39)"><tspan x="0" y="0">thrombin</tspan></text>
  </g>
  <g id="node2">
    <ellipse class="st18" cx="320" cy="59.9" rx="35.55" ry="19.9"/>
    <text class="st2" transform="translate(304.18 58.7)"><tspan x="0" y="0">Ca²⁺_ex</tspan></text>
    <text class="st2" transform="translate(305 68.45)"><tspan x="0" y="0">1.2 mM</tspan></text>
  </g>
  <g id="node7">
    <path class="st16" d="M346.39,140.79h-48.78c-6,0-12,6-12,12v12c0,6,6,12,12,12h48.78c6,0,12-6,12-12v-12c0-6-6-12-12-12"/>
    <text class="st2" transform="translate(311 157.59)"><tspan x="0" y="0">Orai1</tspan></text>
    <text class="st2" transform="translate(294.24 167.34)"><tspan x="0" y="0">SOCE · 1 447</tspan></text>
  </g>
  <g id="edge32">
    <path class="st22" d="M320.4,80.5c.32,15.25.76,36.5,1.1,52.85"/>
    <polygon class="st20" points="323.59 132.93 321.61 138.97 319.39 133.02 323.59 132.93"/>
  </g>
  <g id="node8">
    <path class="st16" d="M251.39,140.79h-66.78c-6,0-12,6-12,12v12c0,6,6,12,12,12h66.78c6,0,12-6,12-12v-12c0-6-6-12-12-12"/>
    <text class="st2" transform="translate(206.99 157.59)"><tspan x="0" y="0">P2X1</tspan></text>
    <text class="st2" transform="translate(181.81 167.34)"><tspan x="0" y="0">ATP-gated · 1 000</tspan></text>
  </g>
  <g id="edge33">
    <path class="st22" d="M302.23,77.77c-16.9,16.06-42.43,40.32-60.95,57.91"/>
    <polygon class="st20" points="243.14 136.8 237.35 139.41 240.25 133.76 243.14 136.8"/>
  </g>
  <g id="node3">
    <path class="st9" d="M250.89,41.9h-57.78c-6,0-12,6-12,12v12c0,6,6,12,12,12h57.78c6,0,12-6,12-12v-12c0-6-6-12-12-12"/>
    <text class="st2" transform="translate(206.32 58.7)"><tspan x="0" y="0">ATP_ex</tspan></text>
    <text class="st2" transform="translate(190.98 68.45)"><tspan x="0" y="0">granule release</tspan></text>
  </g>
  <g id="edge34">
    <path class="st21" d="M221.28,78.22c-.63,15.29-1.55,37.77-2.26,54.93"/>
    <polygon class="st20" points="221.12 133.2 218.77 139.11 216.92 133.03 221.12 133.2"/>
    <text class="st3" transform="translate(220.44 103.39)"><tspan x="0" y="0">gates</tspan></text>
  </g>
  <g id="node9">
    <path class="st11" d="M571.76,239.29h-49.52c-6,0-12,6-12,12v12c0,6,6,12,12,12h49.52c6,0,12-6,12-12v-12c0-6-6-12-12-12"/>
    <text class="st2" transform="translate(527.5 256.09)"><tspan x="0" y="0">Gαq-GTP</tspan></text>
    <text class="st2" transform="translate(519.35 265.84)"><tspan x="0" y="0">~100 of 5 000</tspan></text>
  </g>
  <g id="edge6">
    <path class="st21" d="M629.12,177.05c-16.39,15.82-40.77,39.34-58.71,56.66"/>
    <polygon class="st20" points="571.93 235.16 566.15 237.81 569.01 232.14 571.93 235.16"/>
    <text class="st0" transform="translate(613.37 200.39)"><tspan class="st23" x="0" y="0">GDP</tspan><tspan class="st25" x="17.34" y="0">→</tspan><tspan class="st23" x="21.34" y="0">GTP</tspan></text>
  </g>
  <g id="edge7">
    <path class="st21" d="M451.19,177.27c19.38,15.98,48.14,39.71,69.09,56.99"/>
    <polygon class="st20" points="521.51 232.55 524.8 237.98 518.84 235.79 521.51 232.55"/>
  </g>
  <g id="edge8">
    <path class="st21" d="M547,177.05v54.38"/>
    <polygon class="st20" points="549.1 231.35 547 237.35 544.9 231.35 549.1 231.35"/>
  </g>
  <g id="node14">
    <ellipse class="st14" cx="433" cy="489.09" rx="54.65" ry="26.79"/>
    <text class="st2" transform="translate(416.18 483.01)"><tspan x="0" y="0">Ca²⁺_cyt</tspan></text>
    <text class="st2" transform="translate(406.36 492.76)"><tspan x="0" y="0">~100 nM free</tspan></text>
    <text class="st2" transform="translate(403.68 502.51)"><tspan x="0" y="0">~85% buffered</tspan></text>
  </g>
  <g id="edge35">
    <path class="st22" d="M353.27,177.24c25.3,16.67,56.73,44.36,56.73,79.05v156c0,14.39,3.84,29.68,8.38,42.72"/>
    <polygon class="st20" points="420.34 454.24 420.44 460.59 416.39 455.69 420.34 454.24"/>
    <text class="st3" transform="translate(409.72 337.39)"><tspan x="0" y="0">SOCE refill</tspan></text>
  </g>
  <g id="edge36">
    <path class="st22" d="M216.28,177.09c-2.75,34.73-5.52,114.81,19.72,175.2,25.48,60.95,95.32,98.58,144.57,118.34"/>
    <polygon class="st20" points="381.15 468.6 385.97 472.74 379.62 472.51 381.15 468.6"/>
    <text class="st3" transform="translate(236.05 337.39)"><tspan x="0" y="0">fast entry</tspan></text>
  </g>
  <g id="node10">
    <path class="st11" d="M566.39,316.29h-42.78c-6,0-12,6-12,12v12c0,6,6,12,12,12h42.78c6,0,12-6,12-12v-12c0-6-6-12-12-12"/>
    <text class="st2" transform="translate(520.49 333.09)"><tspan x="0" y="0">PLCβ active</tspan></text>
    <text class="st2" transform="translate(527.74 342.84)"><tspan x="0" y="0">857 total</tspan></text>
  </g>
  <g id="edge9">
    <path class="st21" d="M546.54,275.69c-.26,9.75-.59,22.07-.88,32.82"/>
    <polygon class="st20" points="547.76 308.54 545.5 314.48 543.56 308.43 547.76 308.54"/>
    <text class="st3" transform="translate(545.7 298.89)"><tspan x="0" y="0">activates</tspan></text>
  </g>
  <g id="node11">
    <path class="st12" d="M561.39,393.29h-48.78c-6,0-12,6-12,12v12c0,6,6,12,12,12h48.78c6,0,12-6,12-12v-12c0-6-6-12-12-12"/>
    <text class="st2" transform="translate(508.81 414.97)"><tspan x="0" y="0">PIP₂ · 112 000</tspan></text>
  </g>
  <g id="edge10">
    <path class="st21" d="M543.14,352.69c-1.05,9.84-2.38,22.31-3.53,33.13"/>
    <polygon class="st20" points="541.73 385.74 539.01 391.49 537.55 385.3 541.73 385.74"/>
    <text class="st3" transform="translate(541.11 375.89)"><tspan x="0" y="0">hydrolyses</tspan></text>
  </g>
  <g id="node12">
    <path class="st19" d="M326.64,471.09h-53.28c-6,0-12,6-12,12v12c0,6,6,12,12,12h53.28c6,0,12-6,12-12v-12c0-6-6-12-12-12"/>
    <text class="st2" transform="translate(269.49 492.76)"><tspan x="0" y="0">IP₃ · 50 nM rest</tspan></text>
  </g>
  <g id="edge11">
    <path class="st22" d="M500.25,422.17c-34.61,9.52-87.8,24.72-133.25,40.12-6.82,2.31-13.97,4.89-20.96,7.51"/>
    <polygon class="st20" points="346.9 471.72 340.55 471.87 345.42 467.79 346.9 471.72"/>
  </g>
  <g id="node13">
    <path class="st19" d="M552,471.09h-30c-6,0-12,6-12,12v12c0,6,6,12,12,12h30c6,0,12-6,12-12v-12c0-6-6-12-12-12"/>
    <text class="st2" transform="translate(527.25 492.76)"><tspan x="0" y="0">DAG</tspan></text>
  </g>
  <g id="edge12">
    <path class="st22" d="M537,429.49v33.87"/>
    <polygon class="st20" points="539.1 463.18 537 469.18 534.9 463.18 539.1 463.18"/>
  </g>
  <g id="node17">
    <path class="st16" d="M256.39,576.13h-48.78c-6,0-12,6-12,12v13.89c0,6,6,12,12,12h48.78c6,0,12-6,12-12v-13.89c0-6-6-12-12-12"/>
    <text class="st2" transform="translate(206.98 589)"><tspan x="0" y="0">IP3R · 1 328</tspan></text>
    <text class="st2" transform="translate(204.36 598.75)"><tspan x="0" y="0">DYK + Nernst</tspan></text>
    <text class="st2" transform="translate(206.35 608.5)"><tspan x="0" y="0">γ = 0.075 pS</tspan></text>
  </g>
  <g id="edge13">
    <path class="st21" d="M272.83,507.48c-8.62,6.7-17.49,15.02-23.58,24.4-7.13,10.97-11.34,24.87-13.82,36.75"/>
    <polygon class="st20" points="237.55 568.72 234.38 574.23 233.42 567.95 237.55 568.72"/>
    <text class="st3" transform="translate(248.83 539.48)"><tspan x="0" y="0">activates</tspan></text>
  </g>
  <g id="node15">
    <path class="st13" d="M535.64,577.07h-41.28c-6,0-12,6-12,12v12c0,6,6,12,12,12h41.28c6,0,12-6,12-12v-12c0-6-6-12-12-12"/>
    <text class="st2" transform="translate(491.74 593.87)"><tspan x="0" y="0">CaM ladder</tspan></text>
    <text class="st2" transform="translate(498.74 603.62)"><tspan x="0" y="0">20k free</tspan></text>
  </g>
  <g id="edge15">
    <path class="st21" d="M457.19,520.76c12.68,16.08,27.94,35.44,39.61,50.23"/>
    <polygon class="st20" points="455.85 522.46 453.79 516.45 459.15 519.86 455.85 522.46"/>
    <polygon class="st20" points="498.23 569.42 500.3 575.43 494.93 572.02 498.23 569.42"/>
    <text class="st3" transform="translate(471.88 539.48)"><tspan x="0" y="0">buffer</tspan></text>
  </g>
  <g id="node16">
    <path class="st13" d="M447.89,577.07h-51.78c-6,0-12,6-12,12v12c0,6,6,12,12,12h51.78c6,0,12-6,12-12v-12c0-6-6-12-12-12"/>
    <text class="st2" transform="translate(393.49 593.87)"><tspan x="0" y="0">Gelsolin proxy</tspan></text>
    <text class="st2" transform="translate(401.49 603.62)"><tspan x="0" y="0">1.4M sites</tspan></text>
  </g>
  <g id="edge16">
    <path class="st21" d="M429.39,524.2c-1.57,14.86-3.38,31.95-4.81,45.51"/>
    <polygon class="st20" points="427.29 524.12 430.01 518.37 431.47 524.56 427.29 524.12"/>
    <polygon class="st20" points="426.7 569.59 423.98 575.34 422.52 569.15 426.7 569.59"/>
    <text class="st3" transform="translate(428.83 539.48)"><tspan x="0" y="0">buffer</tspan></text>
  </g>
  <g id="node18">
    <path class="st15" d="M350.01,577.07h-48.02c-6,0-12,6-12,12v12c0,6,6,12,12,12h48.02c6,0,12-6,12-12v-12c0-6-6-12-12-12"/>
    <text class="st2" transform="translate(310.5 593.87)"><tspan x="0" y="0">SERCA</tspan></text>
    <text class="st2" transform="translate(298.73 603.62)"><tspan x="0" y="0">6-state E1/E2</tspan></text>
  </g>
  <g id="edge17">
    <path class="st22" d="M405.24,513.08c-12.34,10.56-26.85,23.46-39.24,35.8-7.1,7.07-14.48,15.16-20.93,22.53"/>
    <polygon class="st20" points="346.84 572.57 341.32 575.73 343.67 569.82 346.84 572.57"/>
    <text class="st3" transform="translate(383.84 539.48)"><tspan x="0" y="0">SERCA</tspan></text>
  </g>
  <g id="node25">
    <path class="st15" d="M723.14,577.07h-44.28c-6,0-12,6-12,12v12c0,6,6,12,12,12h44.28c6,0,12-6,12-12v-12c0-6-6-12-12-12"/>
    <text class="st2" transform="translate(675.99 593.87)"><tspan x="0" y="0">MCU uptake</tspan></text>
    <text class="st2" transform="translate(677.78 603.62)"><tspan x="0" y="0">Hill, K=1µM</tspan></text>
  </g>
  <g id="edge25">
    <path class="st22" d="M474.89,507.65c7.93,2.98,16.21,5.87,24.11,8.23,68.33,20.38,94.34-1.02,157,33,10.28,5.58,19.74,14.25,27.3,22.51"/>
    <polygon class="st20" points="684.84 569.96 687.22 575.86 681.69 572.73 684.84 569.96"/>
  </g>
  <g id="node28">
    <path class="st15" d="M971.01,675.02h-90.02c-6,0-12,6-12,12v12c0,6,6,12,12,12h90.02c6,0,12-6,12-12v-12c0-6-6-12-12-12"/>
    <text class="st2" transform="translate(913 691.82)"><tspan x="0" y="0">PMCA</tspan></text>
    <text class="st2" transform="translate(878.1 701.57)"><tspan x="0" y="0">basal + CaM-act · 1 400</tspan></text>
  </g>
  <g id="edge27">
    <path class="st22" d="M473.98,508.13c8.16,3.01,16.76,5.79,25.02,7.75,76.22,18.1,285.82-10.47,351,33,41.56,27.72,62.03,85.85,70.67,118.87"/>
    <polygon class="st20" points="922.65 666.99 922.07 673.32 918.57 668.01 922.65 666.99"/>
  </g>
  <g id="node29">
    <path class="st15" d="M1069.27,675.02h-52.53c-6,0-12,6-12,12v12c0,6,6,12,12,12h52.53c6,0,12-6,12-12v-12c0-6-6-12-12-12"/>
    <text class="st2" transform="translate(1033.499 691.82)"><tspan x="0" y="0">NCX</tspan></text>
    <text class="st2" transform="translate(1014.1125 701.57)"><tspan x="0" y="0">Na⁺/Ca²⁺ exch.</tspan></text>
  </g>
  <g id="edge28">
    <path class="st22" d="M473.56,508.3c8.27,3.04,17.02,5.78,25.44,7.58,86.15,18.36,318.79-11.17,395,33,55.22,32,105.66,88.66,131.29,120.25"/>
    <polygon class="st20" points="1026.71 667.55 1028.83 673.54 1023.44 670.18 1026.71 667.55"/>
  </g>
  <g id="edge29">
    <path class="st21" d="M540.3,613.41c5.04,2.9,10.41,5.62,15.7,7.66,102.7,39.66,230.3,57.84,305.66,65.64"/>
    <polygon class="st20" points="861.53 684.58 867.29 687.28 861.1 688.76 861.53 684.58"/>
    <text class="st3" transform="translate(604.66 637.62)"><tspan x="0" y="0">Ca₄·CaM</tspan></text>
  </g>
  <g id="edge14">
    <path class="st22" d="M247.57,575.97c8.55-9.08,19.77-19.69,31.43-27.09,17.46-11.08,64.28-28.38,101.75-41.36"/>
    <polygon class="st20" points="379.84 505.62 386.19 505.65 381.21 509.59 379.84 505.62"/>
    <text class="st3" transform="translate(314.5 539.48)"><tspan x="0" y="0">Ca²⁺ release</tspan></text>
  </g>
  <g id="node20">
    <ellipse class="st14" cx="190" cy="693.02" rx="54.65" ry="26.79"/>
    <text class="st2" transform="translate(169.93 686.94)"><tspan x="0" y="0">Ca²⁺_DTS</tspan></text>
    <text class="st2" transform="translate(163.27 696.69)"><tspan x="0" y="0">~250 µM free</tspan></text>
    <text class="st2" transform="translate(160.68 706.44)"><tspan x="0" y="0">~95% buffered</tspan></text>
  </g>
  <g id="edge18">
    <path class="st22" d="M297.41,613.48c-5.91,2.96-12.23,5.69-18.41,7.59-17.73,5.45-69.95-4.24-83,8.95-7.22,7.3-9.91,17.71-10.44,27.93"/>
    <polygon class="st20" points="187.66 657.8 185.53 663.79 183.46 657.78 187.66 657.8"/>
  </g>
  <g id="node19">
    <path class="st8" d="M161.76,577.07h-49.53c-6,0-12,6-12,12v12c0,6,6,12,12,12h49.53c6,0,12-6,12-12v-12c0-6-6-12-12-12"/>
    <text class="st2" transform="translate(108.99 593.87)"><tspan x="0" y="0">STIM1 sensor</tspan></text>
    <text class="st2" transform="translate(120.49 603.62)"><tspan x="0" y="0">438 free</tspan></text>
  </g>
  <g id="edge24">
    <path class="st21" d="M147.41,576.67c28.15-47.3,104.9-177.8,122.59-224.38,22.82-60.07,13.21-79.55,32-141,2.76-9.03,6.36-18.73,9.74-27.25"/>
    <polygon class="st20" points="309.74 183.38 313.93 178.61 313.63 184.96 309.74 183.38"/>
    <text class="st3" transform="translate(263.02 375.89)"><tspan x="0" y="0">gates</tspan></text>
  </g>
  <g id="edge23">
    <path class="st21" d="M175.39,666.18c-4.84-8.62-10.25-18.29-15.14-27.16-3.43-6.22-7.1-12.96-10.49-19.22"/>
    <polygon class="st20" points="147.94 620.85 146.94 614.57 151.64 618.85 147.94 620.85"/>
    <text class="st3" transform="translate(159.95 637.62)"><tspan x="0" y="0">senses</tspan></text>
  </g>
  <g id="node21">
    <path class="st13" d="M85.52,752.81h-45.04c-6,0-12,6-12,12v12c0,6,6,12,12,12h45.04c6,0,12-6,12-12v-12c0-6-6-12-12-12"/>
    <text class="st2" transform="translate(37.49 774.48)"><tspan x="0" y="0">CALR · 528k</tspan></text>
  </g>
  <g id="edge19">
    <path class="st21" d="M149.12,718.42c-16.41,9.79-35.13,20.96-50.92,30.38"/>
    <polygon class="st20" points="147.77 716.78 154 715.5 149.92 720.38 147.77 716.78"/>
    <polygon class="st20" points="99.6 750.41 93.38 751.68 97.45 746.8 99.6 750.41"/>
  </g>
  <g id="node22">
    <path class="st13" d="M192.39,752.81h-60.78c-6,0-12,6-12,12v12c0,6,6,12,12,12h60.78c6,0,12-6,12-12v-12c0-6-6-12-12-12"/>
    <text class="st2" transform="translate(128.73 774.48)"><tspan x="0" y="0">HSP90B1 · 150k</tspan></text>
  </g>
  <g id="edge20">
    <path class="st21" d="M177.68,727.36c-2.25,6.09-4.56,12.34-6.69,18.1"/>
    <polygon class="st20" points="175.63 726.85 179.68 721.95 179.57 728.3 175.63 726.85"/>
    <polygon class="st20" points="172.98 746.14 168.94 751.04 169.04 744.68 172.98 746.14"/>
  </g>
  <g id="node23">
    <path class="st13" d="M268,752.81h-30c-6,0-12,6-12,12v12c0,6,6,12,12,12h30c6,0,12-6,12-12v-12c0-6-6-12-12-12"/>
    <text class="st2" transform="translate(235.07 774.48)"><tspan x="0" y="0">BiP · 50k</tspan></text>
  </g>
  <g id="edge21">
    <path class="st21" d="M215.25,724.39c6.23,7.5,12.81,15.42,18.7,22.5"/>
    <polygon class="st20" points="213.82 725.96 211.6 720 217.05 723.27 213.82 725.96"/>
    <polygon class="st20" points="235.52 745.49 237.74 751.45 232.29 748.18 235.52 745.49"/>
  </g>
  <g id="node24">
    <path class="st13" d="M355.64,752.81h-41.28c-6,0-12,6-12,12v12c0,6,6,12,12,12h41.28c6,0,12-6,12-12v-12c0-6-6-12-12-12"/>
    <text class="st2" transform="translate(311.24 774.48)"><tspan x="0" y="0">CREC · 60k</tspan></text>
  </g>
  <g id="edge22">
    <path class="st21" d="M233.73,716.87c19.69,10.3,42.76,22.36,61.9,32.36"/>
    <polygon class="st20" points="233.03 718.88 228.68 714.24 234.97 715.16 233.03 718.88"/>
    <polygon class="st20" points="296.54 747.34 300.89 751.98 294.6 751.06 296.54 747.34"/>
  </g>
  <g id="node26">
    <path class="st9" d="M824.89,577.07h-33.78c-6,0-12,6-12,12v12c0,6,6,12,12,12h33.78c6,0,12-6,12-12v-12c0-6-6-12-12-12"/>
    <text class="st2" transform="translate(788.43 598.75)"><tspan x="0" y="0">Ca²⁺_mito</tspan></text>
  </g>
  <g id="node27">
    <path class="st15" d="M632.51,577.07h-51.02c-6,0-12,6-12,12v12c0,6,6,12,12,12h51.02c6,0,12-6,12-12v-12c0-6-6-12-12-12"/>
    <text class="st2" transform="translate(578.99 598.75)"><tspan x="0" y="0">NCLX release</tspan></text>
  </g>
  <g id="edge26">
    <path class="st22" d="M593.63,576.58c-7.63-9.13-17.82-19.98-28.63-27.7-14.05-10.05-51.18-26.3-82.49-39.17"/>
    <polygon class="st20" points="482.08 511.81 477.32 507.59 483.67 507.92 482.08 511.81"/>
  </g>
  <g id="edge30">
    <path class="st22" d="M927.56,674.58c.8-12.46,1.27-29.6-.56-44.56-12.09-98.96-54-118.03-54-217.73v-117.5c0-37.78,12.39-58.56-16-83.5-22.25-19.54-109.35,9.82-133-8-34.08-25.66.07-62.36-32-90.5-27.32-23.97-43.92-12.61-80-17-54.08-6.57-192.59,6.86-245-8-6.38-1.8-12.81-4.66-18.77-7.84"/>
    <polygon class="st20" points="347.46 81.93 343.27 77.14 349.53 78.27 347.46 81.93"/>
  </g>
  <g id="edge31">
    <path class="st22" d="M1041.55,674.67c-6.43-67.05-37.6-312.88-158.55-463.38-53.5-66.57-86.98-63.75-165-98.5-23.37-10.41-29.76-12.83-55-17-64.93-10.7-232.64,9.77-296-8-6.38-1.79-12.81-4.63-18.78-7.81"/>
    <polygon class="st20" points="347.45 81.96 343.26 77.17 349.52 78.3 347.45 81.96"/>
  </g>
</svg>